<?xml version="1.0" encoding="UTF-8"?>
<svg version="1.1" xmlns="http://www.w3.org/2000/svg" width="235" height="215">
<path d="M0 0 C1.89878906 -0.02126953 1.89878906 -0.02126953 3.8359375 -0.04296875 C7.80823775 0.19864539 10.86534042 0.95856735 14.625 2.1875 C14.955 6.1475 15.285 10.1075 15.625 14.1875 C13.7378125 14.80625 13.7378125 14.80625 11.8125 15.4375 C10.08286964 16.01945701 8.35373587 16.60289121 6.625 17.1875 C5.74714844 17.47753906 4.86929688 17.76757812 3.96484375 18.06640625 C-5.83601654 21.43677403 -14.23687792 26.36484064 -22.75 32.1875 C-36.3921408 41.46214929 -48.81323629 46.57501136 -65.375 44.1875 C-69.8606545 43.12254102 -74.23214308 41.76953778 -78.625 40.375 C-81.0164052 39.64802061 -83.40833038 38.92274944 -85.80078125 38.19921875 C-88.8183114 37.2774212 -91.83546075 36.35478166 -94.84912109 35.42041016 C-112.73742361 29.95761354 -131.05232883 30.1576949 -147.875 38.6875 C-154.51804012 42.22682465 -159.77263933 46.77554213 -165.08203125 52.0625 C-167.375 54.1875 -167.375 54.1875 -169.375 54.1875 C-169.46870125 49.81088959 -169.46211738 45.43991842 -169.4375 41.0625 C-169.46521484 39.825 -169.49292969 38.5875 -169.52148438 37.3125 C-169.40117571 28.36153533 -169.40117571 28.36153533 -166.53320312 25.08032227 C-164.21001873 23.48742882 -161.95924474 22.30120219 -159.375 21.1875 C-158.22773438 20.64480469 -157.08046875 20.10210937 -155.8984375 19.54296875 C-145.01875605 15.50695789 -145.01875605 15.50695789 -139.375 15.1875 C-138.34632813 15.11208984 -138.34632813 15.11208984 -137.296875 15.03515625 C-120.35304492 14.33383878 -104.03820827 20.96958883 -88.2590332 26.29541016 C-76.73964968 29.85858864 -64.26397297 29.442848 -53.375 24.1875 C-48.59089243 21.507124 -44.00709252 18.51155748 -39.41845703 15.51318359 C-26.92651443 7.4090918 -15.3033039 0.07760296 0 0 Z " fill="#010101" transform="translate(194.375,89.8125)"/>
<path d="M0 0 C0.83934082 0.00161133 1.67868164 0.00322266 2.54345703 0.00488281 C9.58259847 0.14298484 15.30143072 1.72367816 21.8125 4.375 C45.87940798 12.55421811 71.42527161 12.77146002 95.68359375 4.828125 C97.8125 4.375 97.8125 4.375 101.8125 5.375 C101.8125 10.655 101.8125 15.935 101.8125 21.375 C97.89321125 23.33464437 94.69714983 24.0060981 90.4375 24.5 C89.37511108 24.6252002 89.37511108 24.6252002 88.29125977 24.75292969 C68.07134895 26.96621156 50.74478719 23.32217607 31.9765625 16.31640625 C20.61693119 12.37261398 8.63631016 13.38558565 -2.1875 18.375 C-10.8986328 22.75013939 -19.0943853 27.91275457 -27.22973633 33.26245117 C-38.95995267 40.8665288 -50.66348589 44.53148744 -64.66113281 41.91210938 C-80.12907872 38.43342128 -80.12907872 38.43342128 -83.1875 35.375 C-83.15462417 32.64630593 -82.62352229 30.0783382 -82.1875 27.375 C-81.31609375 27.48199219 -80.4446875 27.58898437 -79.546875 27.69921875 C-61.12407968 29.55346114 -49.39046644 22.1693902 -34.53881836 12.42407227 C-23.6277868 5.32696049 -13.28248889 -0.02673071 0 0 Z " fill="#010101" transform="translate(108.1875,25.625)"/>
<path d="M0 0 C5.81268112 2.33211551 11.6820869 3.93473325 17.80664062 5.25708008 C18.13664063 7.89708008 18.46664062 10.53708008 18.80664062 13.25708008 C15.08082817 14.49901756 14.01447528 13.80539796 10.43164062 12.38208008 C-1.8802626 7.53193638 -14.0212321 8.12325769 -26.19335938 13.25708008 C-35.00763774 17.55341894 -43.25222341 22.86494966 -51.45117188 28.21704102 C-63.88381398 36.30114299 -76.11775587 39.2631818 -90.79492188 36.60473633 C-96.4665372 35.13967383 -102.00311512 33.32085441 -107.56835938 31.50317383 C-125.45138799 25.66859295 -142.82285199 20.51852381 -161.02148438 28.51489258 C-163.19335938 29.25708008 -163.19335938 29.25708008 -166.19335938 28.25708008 C-166.22026782 25.63201206 -166.24015342 23.00721834 -166.25585938 20.38208008 C-166.26423828 19.63571289 -166.27261719 18.8893457 -166.28125 18.12036133 C-166.30664062 12.48364258 -166.30664062 12.48364258 -165.19335938 10.25708008 C-148.46576019 9.36888897 -133.74180202 13.4942433 -117.98022461 18.79443359 C-103.29253978 23.68941978 -90.99009475 25.15714917 -76.69335938 18.31958008 C-70.29456458 15.08857502 -64.36471349 11.20588324 -58.39306641 7.25561523 C-50.56817724 2.11231934 -42.45807697 -2.78307581 -33.19335938 -4.74291992 C-31.46085937 -5.11416992 -31.46085937 -5.11416992 -29.69335938 -5.49291992 C-19.28332801 -6.55394235 -9.52531684 -3.82473469 0 0 Z " fill="#010101" transform="translate(191.193359375,74.742919921875)"/>
<path d="M0 0 C14.65088358 6.32521892 30.49623213 6.12079436 46.1875 6.5 C46.1875 10.79 46.1875 15.08 46.1875 19.5 C39.69600192 22.74574904 26.23550612 17.94244864 19.65625 15.7734375 C16.21099664 14.57638425 12.79539443 13.31020579 9.3828125 12.0234375 C-2.39860671 7.63047488 -14.3152145 8.65835083 -25.8125 13.5 C-33.44624059 17.1875016 -40.61260177 21.61150086 -47.56323242 26.44921875 C-59.17862732 34.51054792 -70.39236373 39.15964652 -84.8125 37.5 C-92.19742954 36.14861354 -99.29446266 33.98368156 -106.44921875 31.74609375 C-108.44521945 31.12209812 -110.4413142 30.49840325 -112.4375 29.875 C-113.90993164 29.41359619 -113.90993164 29.41359619 -115.41210938 28.94287109 C-122.84846108 26.66483378 -130.0432158 25.15978323 -137.8125 24.5 C-138.97313604 20.24433453 -138.57423392 16.8164922 -137.8125 12.5 C-137.05332275 12.76216309 -136.29414551 13.02432617 -135.51196289 13.29443359 C-106.03359884 24.13852585 -106.03359884 24.13852585 -76.0625 19 C-70.64860023 16.13587238 -65.65156069 12.77039066 -60.59741211 9.32983398 C-41.03945271 -3.87396725 -22.63645085 -10.18025167 0 0 Z " fill="#020202" transform="translate(163.8125,52.5)"/>
<path d="M0 0 C2.97 0 5.94 0 9 0 C11.30678315 5.9317281 13.2177429 11.88940424 15 18 C16.65 12.06 18.3 6.12 20 0 C23.3 0 26.6 0 30 0 C30.33805147 3.81213403 30.67057419 7.62461885 31 11.4375 C31.09539063 12.50677734 31.19078125 13.57605469 31.2890625 14.67773438 C31.81440872 20.81302771 32.10359579 26.84252506 32 33 C30.00045254 33.04254356 27.99958364 33.04080783 26 33 C24.04848373 31.04848373 24.29031251 27.54831255 23.9375 24.9375 C23.76089844 23.64714844 23.58429687 22.35679687 23.40234375 21.02734375 C23.26957031 20.02832031 23.13679688 19.02929688 23 18 C22.72285156 18.99902344 22.44570313 19.99804688 22.16015625 21.02734375 C21.79444451 22.33077791 21.42854962 23.63416069 21.0625 24.9375 C20.88009766 25.59685547 20.69769531 26.25621094 20.50976562 26.93554688 C19.11328125 31.88671875 19.11328125 31.88671875 18 33 C16.00041636 33.04080783 13.99954746 33.04254356 12 33 C9.92373687 28.37559575 8.29977048 23.8991349 7 19 C5.20160542 20.79839458 5.66077708 23.56537562 5.5 26 C5.11111111 31.88888889 5.11111111 31.88888889 4 33 C2.00041636 33.04080783 -0.00045254 33.04254356 -2 33 C-2.41305862 21.91626033 -1.15439977 11.00802638 0 0 Z " fill="#020202" transform="translate(28,156)"/>
<path d="M0 0 C0.33 1.65 0.66 3.3 1 5 C0.360625 5.12375 -0.27875 5.2475 -0.9375 5.375 C-1.618125 5.58125 -2.29875 5.7875 -3 6 C-3.33 6.66 -3.66 7.32 -4 8 C-1.69 8 0.62 8 3 8 C3.04125 7.071875 3.0825 6.14375 3.125 5.1875 C4 2 4 2 6.8125 0.0625 C9.91356179 -0.97118726 11.05950114 -1.24405721 14 0 C14 1.65 14 3.3 14 5 C12.68 5 11.36 5 10 5 C10 5.99 10 6.98 10 8 C10.78246094 7.98839844 11.56492188 7.97679687 12.37109375 7.96484375 C13.38300781 7.95582031 14.39492187 7.94679687 15.4375 7.9375 C16.44683594 7.92589844 17.45617187 7.91429687 18.49609375 7.90234375 C21 8 21 8 22 9 C22.08713831 10.70772358 22.10700007 12.41898649 22.09765625 14.12890625 C22.09443359 15.16337891 22.09121094 16.19785156 22.08789062 17.26367188 C22.07532227 18.8965918 22.07532227 18.8965918 22.0625 20.5625 C22.05798828 21.65498047 22.05347656 22.74746094 22.04882812 23.87304688 C22.03699826 26.58208495 22.02051543 29.29101599 22 32 C19.69 32 17.38 32 15 32 C15 25.73 15 19.46 15 13 C13.35 13 11.7 13 10 13 C10 19.27 10 25.54 10 32 C7.69 32 5.38 32 3 32 C3 25.73 3 19.46 3 13 C0.69 13 -1.62 13 -4 13 C-4 19.27 -4 25.54 -4 32 C-5.98 32 -7.96 32 -10 32 C-11 31 -11 31 -11.09765625 27.18359375 C-11.09098089 25.60153318 -11.07901875 24.01948841 -11.0625 22.4375 C-11.05798828 21.63119141 -11.05347656 20.82488281 -11.04882812 19.99414062 C-11.03700518 17.99606244 -11.01906914 15.99802217 -11 14 C-11.66 13.67 -12.32 13.34 -13 13 C-13.625 10.9375 -13.625 10.9375 -14 9 C-12.68 8.67 -11.36 8.34 -10 8 C-9.938125 7.071875 -9.87625 6.14375 -9.8125 5.1875 C-9 2 -9 2 -6.6875 0.0625 C-3.82681578 -1.06846818 -2.7949702 -1.13869156 0 0 Z " fill="#030303" transform="translate(148,157)"/>
<path d="M0 0 C3.9555176 2.27945082 6.43365305 4.84268233 8.4375 8.9375 C9.65583481 15.57065619 9.24785971 21.07451549 6 27 C3.15619367 30.4125676 1.72830652 31.70937703 -2.625 32.44140625 C-7.19082334 32.63371674 -10.32397465 32.31386891 -14.5 30.375 C-18.76870594 26.31972936 -20.52877676 22.03278792 -21.05859375 16.1484375 C-20.92997671 11.43247949 -19.70125106 6.95157138 -16.56640625 3.35546875 C-11.26740681 -1.22994972 -6.5704602 -1.76519826 0 0 Z M-10.3125 6.75 C-13.35982189 10.81309585 -13.56635532 15.07558847 -13 20 C-11.84367254 22.36293002 -10.85016245 24.14983755 -9 26 C-4.83009336 26.42781673 -4.83009336 26.42781673 -1.1875 24.6875 C1.52506984 20.83279549 1.4612887 16.52746318 1 12 C0.06636718 8.54603899 0.06636718 8.54603899 -2 6 C-5.69931593 4.58324071 -7.10750391 4.32459755 -10.3125 6.75 Z " fill="#020202" transform="translate(125,157)"/>
<path d="M0 0 C3.10485978 2.0924055 4.69021188 3.62775336 5.52734375 7.3359375 C5.78207433 9.54825514 5.90038633 11.7752946 6 14 C1.71 14 -2.58 14 -7 14 C-6.67 15.32 -6.34 16.64 -6 18 C-0.91696314 18.11320856 -0.91696314 18.11320856 4 17 C4.66 18.65 5.32 20.3 6 22 C1.44570663 24.61898164 -2.86039393 24.7913494 -8 24 C-11.58763015 21.60824657 -13.17056699 19.19953891 -14.5 15.1875 C-15.41329937 10.59490888 -14.43128533 6.96108284 -12 3 C-8.26394994 -0.32093338 -4.8906936 -0.69867051 0 0 Z M-5 5 C-5.66 6.32 -6.32 7.64 -7 9 C-5.02 9 -3.04 9 -1 9 C-1.33 7.68 -1.66 6.36 -2 5 C-2.99 5 -3.98 5 -5 5 Z " fill="#030303" transform="translate(76,165)"/>
<path d="M0 0 C2.93337167 2.04060638 4.61254055 3.5685526 5.5625 7.078125 C5.875 9.25 5.875 9.25 6 13 C5 14 5 14 2.27734375 14.09765625 C0.62412109 14.08025391 0.62412109 14.08025391 -1.0625 14.0625 C-2.71958984 14.04896484 -2.71958984 14.04896484 -4.41015625 14.03515625 C-5.26480469 14.02355469 -6.11945313 14.01195312 -7 14 C-6.67 15.32 -6.34 16.64 -6 18 C-0.91696314 18.11320856 -0.91696314 18.11320856 4 17 C4.33 18.65 4.66 20.3 5 22 C0.7741215 24.81725233 -3.03624688 24.79958384 -8 24 C-10.82424288 21.80977082 -12.41508603 20.16982793 -14 17 C-14.42308538 12.40301468 -14.53894467 8.29346722 -12.75 4 C-9.05918198 -0.21807774 -5.53200263 -0.67936874 0 0 Z M-6 5 C-6.33 6.32 -6.66 7.64 -7 9 C-5.02 9 -3.04 9 -1 9 C-1.33 7.68 -1.66 6.36 -2 5 C-3.32 5 -4.64 5 -6 5 Z " fill="#020202" transform="translate(204,165)"/>
<path d="M0 0 C2.31 0 4.62 0 7 0 C7 1.65 7 3.3 7 5 C8.32 5 9.64 5 11 5 C11.33 6.65 11.66 8.3 12 10 C10.35 10 8.7 10 7 10 C7.33 14.29 7.66 18.58 8 23 C10.475 23.99 10.475 23.99 13 25 C12.67 26.32 12.34 27.64 12 29 C10.56416999 29.10836453 9.1259798 29.18576167 7.6875 29.25 C6.88699219 29.29640625 6.08648437 29.3428125 5.26171875 29.390625 C3 29 3 29 1.21875 27.46875 C-0.45746603 24.07333805 -0.32363479 20.94309246 -0.1875 17.25 C-0.17396484 16.55261719 -0.16042969 15.85523438 -0.14648438 15.13671875 C-0.1112945 13.42414459 -0.05749155 11.71197059 0 10 C-0.99 10 -1.98 10 -3 10 C-3 8.35 -3 6.7 -3 5 C-2.01 5 -1.02 5 0 5 C0 3.35 0 1.7 0 0 Z " fill="#010101" transform="translate(85,160)"/>
<path d="M0 0 C1.8871875 0.061875 1.8871875 0.061875 3.8125 0.125 C4.4725 2.105 5.1325 4.085 5.8125 6.125 C4.884375 6.063125 3.95625 6.00125 3 5.9375 C-0.09497504 5.87260199 -0.09497504 5.87260199 -2.0625 7.25 C-3.71604531 10.00590884 -3.58115568 11.97575452 -3.1875 15.125 C-2.1875 17.125 -2.1875 17.125 -0.1875 18.125 C2.93799017 18.37548636 2.93799017 18.37548636 5.8125 18.125 C6.4375 20 6.4375 20 6.8125 22.125 C4.45298821 24.48451179 3.79324365 24.46909415 0.5625 24.5625 C-2.93921226 24.49472492 -4.94901613 24.01923943 -7.6875 21.8125 C-11.13386167 18.10766121 -11.53190395 15.19980761 -11.4765625 10.19140625 C-11.00353804 6.8099206 -9.3319493 4.69833916 -7.1875 2.125 C-4.09861478 0.06574319 -3.47814073 -0.1140374 0 0 Z " fill="#020202" transform="translate(183.1875,164.875)"/>
</svg>
